# xmcd
#
# Track frame offsets:
# 150
# 14715
# 30095
# 41790
# 55652
# 70295
# 86675
# 100680
# 116647
# 130092
# 145825
# 161430
# 178417
# 191017
# 199370
# 213900
# 229815
# 241532
# 254177
# 270937
# 283800
# 297955
# 308655
# 324077
# 333422
#
# Disc length: 4619 seconds
#
#
# Revision: 0
# Processed by: cddbd v1.5.1PL0 Copyright (c) Steve Scherf et al.
# Submitted via: FreeRIP 2.60 
#
DISCID=6d120919
DTITLE=Don Cherry - Again_Something Old Something New
DYEAR=1900
DGENRE=
TTITLE0=Sweet Memories
TTITLE1=Day By Day
TTITLE2=Nevertheless
TTITLE3=Welcome To My World
TTITLE4=When I Fall In Love
TTITLE5=My Romance
TTITLE6=You Always Hurt The One You Love
TTITLE7=Then I'll Be Tired Of You
TTITLE8=I Really Don't Want To Know
TTITLE9=Maybe
TTITLE10=You Don't Know Me
TTITLE11=Once Upon A Time
TTITLE12=Something Old, Something New
TTITLE13=Out of My Mind
TTITLE14=You're No Ordinary Memory
TTITLE15=Solitaire
TTITLE16=Southern Living
TTITLE17=Heartaches By The Numbers
TTITLE18=When You Leave That Way
TTITLE19=Breaking Up
TTITLE20=Faraway Places
TTITLE21=I'm Not Free To Be
TTITLE22=My Heart Cries For You
TTITLE23=Shenandoah
TTITLE24=Augusta
EXTD=CD 1119
EXTT0=
EXTT1=
EXTT2=
EXTT3=
EXTT4=
EXTT5=
EXTT6=
EXTT7=
EXTT8=
EXTT9=
EXTT10=
EXTT11=
EXTT12=
EXTT13=
EXTT14=
EXTT15=
EXTT16=
EXTT17=
EXTT18=
EXTT19=
EXTT20=
EXTT21=
EXTT22=
EXTT23=
EXTT24=
PLAYORDER=
